<svg width="230" height="64" viewBox="0 0 230 64" fill="none" xmlns="http://www.w3.org/2000/svg">
<path d="M16.127 33.8275V30.7593L30.7009 24.0264V27.8083L20.3458 32.2508L20.463 32.0484V32.5385L20.3458 32.336L30.7009 36.7785V40.5605L16.127 33.8275ZM35.6627 21.1819H40.4994L46.9767 36.9916H47.2323L53.7095 21.1819H58.5462V43.0001H54.7536V28.0108H54.5512L48.5214 42.9362H45.6876L39.6578 27.9788H39.4553V43.0001H35.6627V21.1819ZM78.074 33.8275L63.5001 40.5605V36.7785L73.8552 32.336L73.738 32.5385V32.0484L73.8552 32.2508L63.5001 27.8083V24.0264L78.074 30.7593V33.8275Z" fill="#61289F"/>
<path d="M90.4771 43.0001V21.1819H104.668V24.4951H94.4295V30.4184H103.932V33.7316H94.4295V39.6869H104.753V43.0001H90.4771ZM112.386 21.1819V43.0001H108.529V21.1819H112.386ZM123.468 49.4774C122.083 49.4774 120.894 49.2892 119.899 48.9127C118.905 48.5434 118.106 48.0463 117.502 47.4213C116.899 46.7963 116.479 46.1038 116.245 45.3439L119.718 44.5022C119.874 44.8218 120.102 45.1379 120.4 45.4504C120.698 45.77 121.1 46.0328 121.604 46.2387C122.115 46.4518 122.758 46.5583 123.532 46.5583C124.626 46.5583 125.531 46.292 126.249 45.7593C126.966 45.2338 127.325 44.3673 127.325 43.1599V40.0598H127.133C126.934 40.4575 126.643 40.8659 126.259 41.2849C125.883 41.7039 125.382 42.0555 124.757 42.3396C124.139 42.6237 123.362 42.7657 122.424 42.7657C121.167 42.7657 120.027 42.471 119.004 41.8815C117.989 41.2849 117.179 40.3971 116.575 39.2181C115.979 38.0321 115.68 36.5477 115.68 34.765C115.68 32.9681 115.979 31.4518 116.575 30.216C117.179 28.9731 117.992 28.0321 119.015 27.3929C120.038 26.7465 121.178 26.4234 122.435 26.4234C123.394 26.4234 124.182 26.5867 124.8 26.9135C125.425 27.2331 125.922 27.6201 126.291 28.0747C126.661 28.5221 126.941 28.9447 127.133 29.3424H127.346V26.6365H131.149V43.2664C131.149 44.6656 130.815 45.8233 130.148 46.7394C129.48 47.6556 128.568 48.341 127.41 48.7956C126.252 49.2501 124.938 49.4774 123.468 49.4774ZM123.5 39.7402C124.317 39.7402 125.013 39.5413 125.588 39.1436C126.163 38.7458 126.6 38.1741 126.899 37.4284C127.197 36.6826 127.346 35.7877 127.346 34.7437C127.346 33.7139 127.197 32.8119 126.899 32.0377C126.607 31.2636 126.174 30.6635 125.599 30.2373C125.031 29.8041 124.331 29.5875 123.5 29.5875C122.641 29.5875 121.923 29.8112 121.348 30.2586C120.773 30.7061 120.34 31.3204 120.048 32.1017C119.757 32.8758 119.612 33.7565 119.612 34.7437C119.612 35.7451 119.757 36.6223 120.048 37.3751C120.347 38.1208 120.783 38.7032 121.359 39.1223C121.941 39.5342 122.655 39.7402 123.5 39.7402ZM142.239 43.3197C140.641 43.3197 139.256 42.9681 138.085 42.265C136.913 41.5619 136.004 40.5782 135.357 39.314C134.718 38.0498 134.399 36.5725 134.399 34.8822C134.399 33.1919 134.718 31.711 135.357 30.4397C136.004 29.1684 136.913 28.1812 138.085 27.4781C139.256 26.775 140.641 26.4234 142.239 26.4234C143.837 26.4234 145.222 26.775 146.394 27.4781C147.566 28.1812 148.472 29.1684 149.111 30.4397C149.757 31.711 150.08 33.1919 150.08 34.8822C150.08 36.5725 149.757 38.0498 149.111 39.314C148.472 40.5782 147.566 41.5619 146.394 42.265C145.222 42.9681 143.837 43.3197 142.239 43.3197ZM142.261 40.2302C143.127 40.2302 143.852 39.9923 144.434 39.5164C145.016 39.0335 145.45 38.3872 145.734 37.5775C146.025 36.7679 146.171 35.8659 146.171 34.8715C146.171 33.8701 146.025 32.9646 145.734 32.1549C145.45 31.3382 145.016 30.6883 144.434 30.2054C143.852 29.7224 143.127 29.4809 142.261 29.4809C141.373 29.4809 140.634 29.7224 140.045 30.2054C139.462 30.6883 139.026 31.3382 138.734 32.1549C138.45 32.9646 138.308 33.8701 138.308 34.8715C138.308 35.8659 138.45 36.7679 138.734 37.5775C139.026 38.3872 139.462 39.0335 140.045 39.5164C140.634 39.9923 141.373 40.2302 142.261 40.2302ZM157.21 33.412V43.0001H153.354V21.1819H157.125V29.417H157.317C157.7 28.4937 158.293 27.7657 159.096 27.2331C159.905 26.6933 160.935 26.4234 162.185 26.4234C163.322 26.4234 164.312 26.6613 165.158 27.1372C166.003 27.613 166.656 28.309 167.118 29.2252C167.587 30.1414 167.821 31.26 167.821 32.5811V43.0001H163.964V33.1777C163.964 32.0768 163.68 31.221 163.112 30.6102C162.551 29.9923 161.763 29.6833 160.747 29.6833C160.065 29.6833 159.454 29.8325 158.915 30.1308C158.382 30.422 157.963 30.8446 157.658 31.3985C157.359 31.9525 157.21 32.6237 157.21 33.412ZM176.461 43.3304C175.424 43.3304 174.49 43.1457 173.659 42.7764C172.835 42.4 172.182 41.846 171.699 41.1144C171.223 40.3829 170.985 39.4809 170.985 38.4085C170.985 37.4852 171.155 36.7217 171.496 36.118C171.837 35.5143 172.302 35.0313 172.892 34.6691C173.481 34.3069 174.146 34.0335 174.884 33.8488C175.63 33.6571 176.4 33.5186 177.196 33.4333C178.155 33.3339 178.932 33.2451 179.529 33.167C180.126 33.0818 180.559 32.9539 180.829 32.7835C181.106 32.6059 181.244 32.3325 181.244 31.9632V31.8992C181.244 31.0967 181.006 30.4752 180.53 30.0349C180.055 29.5946 179.369 29.3744 178.474 29.3744C177.53 29.3744 176.78 29.5804 176.226 29.9923C175.68 30.4042 175.31 30.8907 175.119 31.4518L171.518 30.9404C171.802 29.9461 172.271 29.1152 172.924 28.4475C173.577 27.7728 174.376 27.2686 175.321 26.9348C176.266 26.5939 177.31 26.4234 178.453 26.4234C179.241 26.4234 180.026 26.5157 180.807 26.7004C181.589 26.885 182.302 27.1904 182.949 27.6166C183.595 28.0356 184.114 28.6073 184.504 29.3318C184.902 30.0562 185.101 30.9617 185.101 32.0484V43.0001H181.393V40.7522H181.266C181.031 41.2068 180.701 41.6329 180.275 42.0306C179.856 42.4213 179.327 42.7373 178.687 42.9788C178.055 43.2132 177.313 43.3304 176.461 43.3304ZM177.462 40.4965C178.236 40.4965 178.908 40.3438 179.476 40.0385C180.044 39.726 180.481 39.314 180.786 38.8027C181.099 38.2913 181.255 37.7338 181.255 37.1301V35.2018C181.134 35.3012 180.928 35.3936 180.637 35.4788C180.353 35.564 180.033 35.6386 179.678 35.7025C179.323 35.7664 178.972 35.8233 178.623 35.873C178.275 35.9227 177.974 35.9653 177.718 36.0008C177.143 36.0789 176.628 36.2068 176.173 36.3843C175.719 36.5619 175.36 36.8105 175.097 37.1301C174.834 37.4426 174.703 37.8474 174.703 38.3446C174.703 39.0548 174.962 39.591 175.481 39.9532C175.999 40.3154 176.66 40.4965 177.462 40.4965ZM188.979 43.0001V26.6365H192.718V29.3637H192.888C193.187 28.4191 193.698 27.6912 194.422 27.1798C195.154 26.6613 195.989 26.4021 196.926 26.4021C197.139 26.4021 197.377 26.4127 197.64 26.434C197.91 26.4483 198.133 26.4731 198.311 26.5086V30.0562C198.148 29.9994 197.888 29.9497 197.533 29.9071C197.185 29.8573 196.848 29.8325 196.521 29.8325C195.818 29.8325 195.186 29.9852 194.625 30.2906C194.071 30.5889 193.634 31.0044 193.315 31.537C192.995 32.0697 192.835 32.684 192.835 33.3801V43.0001H188.979ZM203.768 49.1365C203.243 49.1365 202.756 49.0939 202.309 49.0086C201.868 48.9305 201.517 48.8382 201.254 48.7316L202.149 45.7274C202.71 45.8907 203.211 45.9689 203.651 45.9617C204.091 45.9546 204.478 45.8162 204.812 45.5463C205.153 45.2835 205.441 44.8431 205.675 44.2252L206.005 43.341L200.071 26.6365H204.162L207.934 38.9944H208.104L211.886 26.6365H215.988L209.436 44.9816C209.13 45.8481 208.726 46.5903 208.221 47.2082C207.717 47.8332 207.099 48.309 206.368 48.6358C205.643 48.9696 204.777 49.1365 203.768 49.1365Z" fill="#CCCCCC"/>
</svg>
